# xmcd
# Track frame offsets:
# 150
# 12675
# 30660
# 47245
# 58275
# 72372
# 106187
# 119587
# 139620
# 154747
# 191295
# 203940
# 216800
# 233670
# 245512
# 269400
#
# Disc length: 3756 seconds
# Revision: 0
# Processed by: cddbd v1.4PL0 Copyright (c) Steve Scherf et al.
# Submitted via: VisiTrax 2.9.5.180 - For more info visit www.synapsa.com
#
DISCID=ee0eaa10
DTITLE=Ann Breen - An Evening with Ann Breen
DYEAR=1900
DGENRE=Irsk
TTITLE0=Golden jubilee
TTITLE1=If those lips could only speak
TTITLE2=Sweet sixteen
TTITLE3=Blackboard of my heart
TTITLE4=One day at a time
TTITLE5=Jealous heart
TTITLE6=Stand by your man
TTITLE7=Love is
TTITLE8=River shannon
TTITLE9=If your Irish come into the parlour
TTITLE10=Old maid In the Garret
TTITLE11=One da when we were young
TTITLE12=Mountains of mourne
TTITLE13=Old dungarvan oak
TTITLE14=How great thou art
TTITLE15=Each day of your life
EXTD=
EXTT0=
EXTT1=
EXTT2=
EXTT3=
EXTT4=
EXTT5=
EXTT6=
EXTT7=
EXTT8=
EXTT9=
EXTT10=
EXTT11=
EXTT12=
EXTT13=
EXTT14=
EXTT15=Old Bog Road
PLAYORDER=
